<?xml version="1.0" encoding="UTF-8"?>
<svg width="180px" height="180px" viewBox="0 0 180 180" version="1.1" xmlns="http://www.w3.org/2000/svg" xmlns:xlink="http://www.w3.org/1999/xlink">
    <title>WarsawJS Logo</title>
    <g id="WarsawJS" stroke="none" stroke-width="1" fill="none" fill-rule="evenodd">
        <circle id="Background" fill="#334556" cx="90" cy="90" r="90"></circle>
        <g id="JS-Logo" transform="translate(45.000000, 45.000000)" fill="#FFFFFF">
            <path d="M45,0 C69.8528137,0 90,20.1471863 90,45 C90,69.8528137 69.8528137,90 45,90 C20.1471863,90 0,69.8528137 0,45 C0,20.1471863 20.1471863,0 45,0 Z M45,10 C25.6700338,10 10,25.6700338 10,45 C10,64.3299662 25.6700338,80 45,80 C64.3299662,80 80,64.3299662 80,45 C80,25.6700338 64.3299662,10 45,10 Z" id="Shape" fill-rule="nonzero"></path>
            <path d="M57.5,35 L67.5,35 L67.5,65 C67.5,67.7614237 65.2614237,70 62.5,70 L30,70 L30,60 L57.5,60 L57.5,35 Z" id="J"></path>
            <path d="M25,20 L37.5,20 L50,55 L37.5,55 L34.375,45 L28.125,45 L25,55 L12.5,55 L25,20 Z M31.25,27.5 L29.375,37.5 L33.125,37.5 L31.25,27.5 Z" id="S"></path>
        </g>
    </g>
</svg>